<?xml version="1.0" encoding="UTF-8" standalone="no"?>
<!DOCTYPE svg PUBLIC "-//W3C//DTD SVG 1.1//EN" "http://www.w3.org/Graphics/SVG/1.1/DTD/svg11.dtd">
<!-- Created with Vectornator (http://vectornator.io/) -->
<svg height="100%" stroke-miterlimit="10" style="fill-rule:nonzero;clip-rule:evenodd;stroke-linecap:round;stroke-linejoin:round;" version="1.1" viewBox="0 0 850 850" width="100%" xml:space="preserve" xmlns="http://www.w3.org/2000/svg" xmlns:xlink="http://www.w3.org/1999/xlink">
<defs/>
<g id="Ebene-1">
<g opacity="1">
<path d="M379.963 22.3742L379.963 835.846" fill="none" opacity="1" stroke="#6b7280" stroke-dasharray="18.0,42.0" stroke-linecap="round" stroke-linejoin="round" stroke-width="25"/>
<path d="M239.061 429.11C239.061 351.292 302.145 288.208 379.963 288.208C457.781 288.208 520.865 351.292 520.865 429.11C520.865 506.928 457.781 570.012 379.963 570.012C302.145 570.012 239.061 506.928 239.061 429.11Z" fill="#c9d2cc" fill-rule="nonzero" opacity="1" stroke="none"/>
<path d="M62.3042 429.11C62.3042 253.672 204.525 111.451 379.963 111.451C555.401 111.451 697.622 253.672 697.622 429.11C697.622 604.548 555.401 746.769 379.963 746.769C204.525 746.769 62.3042 604.548 62.3042 429.11Z" fill="none" opacity="1" stroke="#6b7280" stroke-linecap="butt" stroke-linejoin="round" stroke-width="25"/>
<path d="M379.963 20.0461L403.857 43.9395L431.711 71.7942" fill="none" opacity="1" stroke="#6b7280" stroke-linecap="round" stroke-linejoin="round" stroke-width="25"/>
<path d="M379.878 20.1316L328.128 71.8816" fill="none" opacity="1" stroke="#6b7280" stroke-linecap="round" stroke-linejoin="round" stroke-width="25"/>
<path d="M383.862 429.11L582.204 772.647" fill="none" opacity="1" stroke="#6b7280" stroke-linecap="round" stroke-linejoin="round" stroke-width="25"/>
<path d="M383.862 429.11L694.816 690.031" fill="none" opacity="1" stroke="#6b7280" stroke-linecap="round" stroke-linejoin="round" stroke-width="25"/>
<g fill="#6b7280" opacity="1" stroke="none">
<path d="M562.702 826.729L569.077 825.955C569.281 827.58 569.827 828.822 570.718 829.682C571.609 830.541 572.687 830.971 573.952 830.971C575.312 830.971 576.456 830.455 577.386 829.424C578.316 828.393 578.781 827.002 578.781 825.252C578.781 823.596 578.335 822.283 577.445 821.315C576.554 820.346 575.468 819.861 574.187 819.861C573.343 819.861 572.335 820.026 571.163 820.354L571.89 814.986C573.671 815.033 575.031 814.647 575.968 813.826C576.906 813.006 577.374 811.916 577.374 810.557C577.374 809.401 577.031 808.479 576.343 807.791C575.656 807.104 574.742 806.76 573.601 806.76C572.476 806.76 571.515 807.151 570.718 807.932C569.921 808.713 569.437 809.854 569.265 811.354L563.195 810.322C563.617 808.244 564.253 806.584 565.105 805.342C565.956 804.1 567.144 803.123 568.667 802.412C570.191 801.701 571.898 801.346 573.788 801.346C577.023 801.346 579.617 802.377 581.57 804.44C583.179 806.127 583.984 808.033 583.984 810.158C583.984 813.174 582.335 815.58 579.038 817.377C581.007 817.799 582.581 818.744 583.761 820.213C584.941 821.682 585.531 823.455 585.531 825.533C585.531 828.549 584.429 831.119 582.226 833.244C580.023 835.369 577.281 836.432 573.999 836.432C570.89 836.432 568.312 835.537 566.265 833.748C564.218 831.959 563.031 829.619 562.702 826.729Z"/>
<path d="M600.765 801.346C604.093 801.346 606.695 802.533 608.57 804.908C610.804 807.721 611.921 812.385 611.921 818.901C611.921 825.401 610.796 830.072 608.546 832.916C606.687 835.26 604.093 836.432 600.765 836.432C597.421 836.432 594.726 835.147 592.679 832.576C590.632 830.006 589.609 825.424 589.609 818.83C589.609 812.361 590.734 807.705 592.984 804.861C594.843 802.518 597.437 801.346 600.765 801.346ZM600.765 806.807C599.968 806.807 599.257 807.061 598.632 807.569C598.007 808.076 597.523 808.986 597.179 810.299C596.726 812.002 596.499 814.869 596.499 818.901C596.499 822.932 596.702 825.701 597.109 827.209C597.515 828.717 598.027 829.721 598.644 830.221C599.261 830.721 599.968 830.971 600.765 830.971C601.562 830.971 602.273 830.717 602.898 830.209C603.523 829.701 604.007 828.791 604.351 827.479C604.804 825.791 605.031 822.932 605.031 818.901C605.031 814.869 604.827 812.1 604.421 810.592C604.015 809.084 603.503 808.076 602.886 807.569C602.269 807.061 601.562 806.807 600.765 806.807Z"/>
<path d="M616.304 808.377C616.304 806.299 617.034 804.533 618.495 803.08C619.956 801.627 621.718 800.901 623.781 800.901C625.843 800.901 627.605 801.631 629.066 803.092C630.527 804.553 631.257 806.315 631.257 808.377C631.257 810.44 630.527 812.201 629.066 813.662C627.605 815.123 625.843 815.854 623.781 815.854C621.718 815.854 619.956 815.123 618.495 813.662C617.034 812.201 616.304 810.44 616.304 808.377ZM620.195 808.377C620.195 809.361 620.546 810.205 621.249 810.908C621.952 811.611 622.796 811.963 623.781 811.963C624.765 811.963 625.609 811.611 626.312 810.908C627.015 810.205 627.367 809.361 627.367 808.377C627.367 807.393 627.015 806.549 626.312 805.846C625.609 805.143 624.765 804.791 623.781 804.791C622.796 804.791 621.952 805.143 621.249 805.846C620.546 806.549 620.195 807.393 620.195 808.377Z"/>
</g>
<g fill="#6b7280" opacity="1" stroke="none">
<path d="M701.255 737.933L707.817 737.253C708.005 738.738 708.56 739.914 709.481 740.781C710.403 741.648 711.466 742.081 712.669 742.081C714.044 742.081 715.208 741.523 716.161 740.406C717.114 739.289 717.591 737.605 717.591 735.355C717.591 733.246 717.118 731.664 716.173 730.609C715.227 729.554 713.997 729.027 712.481 729.027C710.591 729.027 708.895 729.863 707.395 731.535L702.052 730.761L705.427 712.878L722.841 712.878L722.841 719.042L710.419 719.042L709.388 724.878C710.856 724.144 712.356 723.777 713.888 723.777C716.81 723.777 719.286 724.839 721.317 726.964C723.349 729.089 724.364 731.847 724.364 735.238C724.364 738.066 723.544 740.589 721.903 742.808C719.669 745.839 716.567 747.355 712.599 747.355C709.427 747.355 706.841 746.503 704.841 744.8C702.841 743.097 701.645 740.808 701.255 737.933Z"/>
<path d="M738.989 712.269C742.317 712.269 744.919 713.456 746.794 715.831C749.028 718.644 750.145 723.308 750.145 729.824C750.145 736.324 749.02 740.996 746.77 743.839C744.911 746.183 742.317 747.355 738.989 747.355C735.645 747.355 732.95 746.07 730.903 743.499C728.856 740.929 727.833 736.347 727.833 729.753C727.833 723.285 728.958 718.628 731.208 715.785C733.067 713.441 735.661 712.269 738.989 712.269ZM738.989 717.73C738.192 717.73 737.481 717.984 736.856 718.492C736.231 718.999 735.747 719.91 735.403 721.222C734.95 722.925 734.724 725.792 734.724 729.824C734.724 733.855 734.927 736.624 735.333 738.132C735.739 739.64 736.251 740.644 736.868 741.144C737.485 741.644 738.192 741.894 738.989 741.894C739.786 741.894 740.497 741.64 741.122 741.132C741.747 740.624 742.231 739.714 742.575 738.402C743.028 736.714 743.255 733.855 743.255 729.824C743.255 725.792 743.052 723.023 742.645 721.515C742.239 720.007 741.727 718.999 741.11 718.492C740.493 717.984 739.786 717.73 738.989 717.73Z"/>
<path d="M754.528 719.3C754.528 717.222 755.259 715.456 756.72 714.003C758.181 712.55 759.942 711.824 762.005 711.824C764.067 711.824 765.829 712.554 767.29 714.015C768.751 715.476 769.481 717.238 769.481 719.3C769.481 721.363 768.751 723.124 767.29 724.585C765.829 726.046 764.067 726.777 762.005 726.777C759.942 726.777 758.181 726.046 756.72 724.585C755.259 723.124 754.528 721.363 754.528 719.3ZM758.419 719.3C758.419 720.285 758.77 721.128 759.474 721.831C760.177 722.535 761.02 722.886 762.005 722.886C762.989 722.886 763.833 722.535 764.536 721.831C765.239 721.128 765.591 720.285 765.591 719.3C765.591 718.316 765.239 717.472 764.536 716.769C763.833 716.066 762.989 715.714 762.005 715.714C761.02 715.714 760.177 716.066 759.474 716.769C758.77 717.472 758.419 718.316 758.419 719.3Z"/>
</g>
</g>
</g>
</svg>
