<?xml version="1.0" encoding="UTF-8" standalone="no"?>
<!DOCTYPE svg PUBLIC "-//W3C//DTD SVG 1.1//EN" "http://www.w3.org/Graphics/SVG/1.1/DTD/svg11.dtd">
<!-- Created with Vectornator (http://vectornator.io/) -->
<svg height="100%"
     stroke-miterlimit="10" style="fill-rule:nonzero;clip-rule:evenodd;stroke-linecap:round;stroke-linejoin:round;"
     version="1.1" viewBox="0 0 36 25" width="100%" xml:space="preserve"
     xmlns="http://www.w3.org/2000/svg">
<defs/>
    <g id="Untitled">
<path d="M3.646 21.499C2.187 21.499 1 20.232 1 18.678C1 17.124 2.187 15.859 3.646 15.859C4.14 15.859 4.627 16.013 5.056 16.302L5.113 16.34L11.751 10.794L11.744 10.735C11.716 10.546 11.7 10.432 11.7 10.318C11.7 8.762 12.886 7.498 14.345 7.498C15.803 7.498 16.991 8.763 16.991 10.318C16.991 10.748 16.891 11.177 16.695 11.588L16.667 11.649L19.338 15.236L19.401 15.213C19.665 15.126 19.931 15.081 20.196 15.081C20.717 15.081 21.223 15.244 21.659 15.556L21.722 15.598L29.938 7.453L29.913 7.387C29.78 7.042 29.713 6.684 29.713 6.319C29.713 4.765 30.9 3.501 32.359 3.501C33.818 3.501 35 4.764 35 6.317C35 7.872 33.813 9.137 32.354 9.137C31.947 9.137 31.543 9.029 31.156 8.815L31.097 8.784L22.716 17.095L22.732 17.155C22.804 17.434 22.838 17.67 22.838 17.899C22.838 19.452 21.651 20.72 20.192 20.72C18.733 20.72 17.546 19.451 17.546 17.899C17.546 17.385 17.684 16.888 17.957 16.421L17.992 16.36L15.415 12.899L15.349 12.925C15.031 13.066 14.693 13.136 14.345 13.136C13.742 13.136 13.154 12.915 12.686 12.513L12.627 12.461L12.522 12.463L6.144 17.79L6.163 17.858C6.25 18.16 6.291 18.421 6.291 18.676C6.291 20.232 5.104 21.499 3.646 21.499L3.646 21.499ZM3.646 17.68C3.129 17.68 2.708 18.128 2.708 18.678C2.708 19.231 3.129 19.678 3.646 19.678C4.163 19.678 4.584 19.231 4.584 18.678C4.583 18.128 4.163 17.68 3.646 17.68L3.646 17.68ZM20.193 16.9C19.981 16.9 19.785 16.97 19.623 17.105C19.389 17.295 19.255 17.584 19.255 17.898C19.255 18.449 19.676 18.897 20.193 18.897C20.71 18.897 21.131 18.449 21.131 17.898C21.131 17.347 20.71 16.9 20.193 16.9L20.193 16.9ZM14.344 9.319C13.827 9.319 13.406 9.767 13.406 10.318C13.406 10.62 13.534 10.904 13.757 11.096C13.891 11.21 14.127 11.284 14.36 11.284C14.544 11.284 14.805 11.239 15.006 11.024C15.183 10.836 15.281 10.585 15.281 10.318C15.281 9.768 14.86 9.319 14.344 9.319L14.344 9.319ZM32.354 5.32C31.837 5.32 31.416 5.765 31.416 6.317C31.416 6.868 31.837 7.316 32.354 7.316C32.871 7.316 33.292 6.868 33.292 6.317C33.293 5.766 32.871 5.32 32.354 5.32L32.354 5.32Z"
      fill="#e5e7eb" fill-rule="nonzero" opacity="1" stroke="none"/>
</g>
</svg>
