<?xml version="1.0" encoding="UTF-8" standalone="no"?>
<!DOCTYPE svg PUBLIC "-//W3C//DTD SVG 1.1//EN" "http://www.w3.org/Graphics/SVG/1.1/DTD/svg11.dtd">
<!-- Created with Vectornator (http://vectornator.io/) -->
<svg height="100%"
     stroke-miterlimit="10" style="fill-rule:nonzero;clip-rule:evenodd;stroke-linecap:round;stroke-linejoin:round;"
     version="1.1" viewBox="0 0 850 850" width="100%" xml:space="preserve"
     xmlns="http://www.w3.org/2000/svg">
<defs/>
    <g id="Ebene-1">
<path d="M379.963 22.3742L379.963 835.846" fill="none" opacity="1" stroke="#6b7280" stroke-dasharray="18.0,0.0,0.0,42.0"
      stroke-linecap="round" stroke-linejoin="round" stroke-width="25"/>
        <path d="M239.061 429.11C239.061 351.292 302.145 288.208 379.963 288.208C457.781 288.208 520.865 351.292 520.865 429.11C520.865 506.928 457.781 570.012 379.963 570.012C302.145 570.012 239.061 506.928 239.061 429.11Z"
              fill="#c9d2cc" fill-rule="nonzero" opacity="1" stroke="none"/>
        <path d="M62.3042 429.11C62.3042 253.672 204.525 111.451 379.963 111.451C555.401 111.451 697.622 253.672 697.622 429.11C697.622 604.548 555.401 746.769 379.963 746.769C204.525 746.769 62.3042 604.548 62.3042 429.11Z"
              fill="none" opacity="1" stroke="#6b7280" stroke-linecap="butt" stroke-linejoin="round" stroke-width="25"/>
        <path d="M379.963 20.0461L403.857 43.9395L431.711 71.7942" fill="none" opacity="1" stroke="#6b7280"
              stroke-linecap="round" stroke-linejoin="round" stroke-width="25"/>
        <path d="M379.878 20.1316L328.128 71.8816" fill="none" opacity="1" stroke="#6b7280" stroke-linecap="round"
              stroke-linejoin="round" stroke-width="25"/>
        <path d="M383.862 429.11L582.204 772.647" fill="none" opacity="1" stroke="#6b7280" stroke-linecap="round"
              stroke-linejoin="round" stroke-width="25"/>
        <path d="M383.629 429.11L735.167 632.071" fill="none" opacity="1" stroke="#6b7280" stroke-linecap="round"
              stroke-linejoin="round" stroke-width="25"/>
        <g fill="#6b7280" opacity="1" stroke="none">
<path d="M562.702 826.729L569.077 825.955C569.281 827.58 569.827 828.822 570.718 829.682C571.609 830.541 572.687 830.971 573.952 830.971C575.312 830.971 576.456 830.455 577.386 829.424C578.316 828.393 578.781 827.002 578.781 825.252C578.781 823.596 578.335 822.283 577.445 821.315C576.554 820.346 575.468 819.861 574.187 819.861C573.343 819.861 572.335 820.026 571.163 820.354L571.89 814.986C573.671 815.033 575.031 814.647 575.968 813.826C576.906 813.006 577.374 811.916 577.374 810.557C577.374 809.401 577.031 808.479 576.343 807.791C575.656 807.104 574.742 806.76 573.601 806.76C572.476 806.76 571.515 807.151 570.718 807.932C569.921 808.713 569.437 809.854 569.265 811.354L563.195 810.322C563.617 808.244 564.253 806.584 565.105 805.342C565.956 804.1 567.144 803.123 568.667 802.412C570.191 801.701 571.898 801.346 573.788 801.346C577.023 801.346 579.617 802.377 581.57 804.44C583.179 806.127 583.984 808.033 583.984 810.158C583.984 813.174 582.335 815.58 579.038 817.377C581.007 817.799 582.581 818.744 583.761 820.213C584.941 821.682 585.531 823.455 585.531 825.533C585.531 828.549 584.429 831.119 582.226 833.244C580.023 835.369 577.281 836.432 573.999 836.432C570.89 836.432 568.312 835.537 566.265 833.748C564.218 831.959 563.031 829.619 562.702 826.729Z"/>
            <path d="M600.765 801.346C604.093 801.346 606.695 802.533 608.57 804.908C610.804 807.721 611.921 812.385 611.921 818.901C611.921 825.401 610.796 830.072 608.546 832.916C606.687 835.26 604.093 836.432 600.765 836.432C597.421 836.432 594.726 835.147 592.679 832.576C590.632 830.006 589.609 825.424 589.609 818.83C589.609 812.361 590.734 807.705 592.984 804.861C594.843 802.518 597.437 801.346 600.765 801.346ZM600.765 806.807C599.968 806.807 599.257 807.061 598.632 807.569C598.007 808.076 597.523 808.986 597.179 810.299C596.726 812.002 596.499 814.869 596.499 818.901C596.499 822.932 596.702 825.701 597.109 827.209C597.515 828.717 598.027 829.721 598.644 830.221C599.261 830.721 599.968 830.971 600.765 830.971C601.562 830.971 602.273 830.717 602.898 830.209C603.523 829.701 604.007 828.791 604.351 827.479C604.804 825.791 605.031 822.932 605.031 818.901C605.031 814.869 604.827 812.1 604.421 810.592C604.015 809.084 603.503 808.076 602.886 807.569C602.269 807.061 601.562 806.807 600.765 806.807Z"/>
            <path d="M616.304 808.377C616.304 806.299 617.034 804.533 618.495 803.08C619.956 801.627 621.718 800.901 623.781 800.901C625.843 800.901 627.605 801.631 629.066 803.092C630.527 804.553 631.257 806.315 631.257 808.377C631.257 810.44 630.527 812.201 629.066 813.662C627.605 815.123 625.843 815.854 623.781 815.854C621.718 815.854 619.956 815.123 618.495 813.662C617.034 812.201 616.304 810.44 616.304 808.377ZM620.195 808.377C620.195 809.361 620.546 810.205 621.249 810.908C621.952 811.611 622.796 811.963 623.781 811.963C624.765 811.963 625.609 811.611 626.312 810.908C627.015 810.205 627.367 809.361 627.367 808.377C627.367 807.393 627.015 806.549 626.312 805.846C625.609 805.143 624.765 804.791 623.781 804.791C622.796 804.791 621.952 805.143 621.249 805.846C620.546 806.549 620.195 807.393 620.195 808.377Z"/>
</g>
        <g fill="#6b7280" opacity="1" stroke="none">
<path d="M785.778 649.125L779.403 649.828C779.247 648.516 778.84 647.547 778.184 646.922C777.528 646.297 776.676 645.985 775.629 645.985C774.239 645.985 773.063 646.61 772.102 647.86C771.141 649.11 770.536 651.711 770.286 655.664C771.926 653.727 773.965 652.758 776.403 652.758C779.153 652.758 781.508 653.805 783.469 655.899C785.43 657.992 786.411 660.696 786.411 664.008C786.411 667.524 785.379 670.344 783.317 672.469C781.254 674.594 778.606 675.657 775.372 675.657C771.903 675.657 769.051 674.309 766.817 671.614C764.582 668.918 763.465 664.5 763.465 658.36C763.465 652.063 764.629 647.524 766.957 644.742C769.286 641.961 772.309 640.571 776.028 640.571C778.637 640.571 780.797 641.301 782.508 642.762C784.219 644.223 785.309 646.344 785.778 649.125ZM770.848 663.492C770.848 665.633 771.34 667.285 772.325 668.449C773.309 669.614 774.434 670.196 775.7 670.196C776.918 670.196 777.934 669.719 778.747 668.766C779.559 667.813 779.965 666.25 779.965 664.078C779.965 661.844 779.528 660.207 778.653 659.168C777.778 658.129 776.684 657.61 775.372 657.61C774.106 657.61 773.036 658.106 772.161 659.098C771.286 660.09 770.848 661.555 770.848 663.492Z"/>
            <path d="M801.293 640.571C804.622 640.571 807.223 641.758 809.098 644.133C811.332 646.946 812.45 651.61 812.45 658.125C812.45 664.625 811.325 669.297 809.075 672.141C807.215 674.485 804.622 675.657 801.293 675.657C797.95 675.657 795.254 674.371 793.207 671.801C791.161 669.231 790.137 664.649 790.137 658.055C790.137 651.586 791.262 646.93 793.512 644.086C795.372 641.742 797.965 640.571 801.293 640.571ZM801.293 646.032C800.497 646.032 799.786 646.285 799.161 646.793C798.536 647.301 798.051 648.211 797.707 649.524C797.254 651.227 797.028 654.094 797.028 658.125C797.028 662.157 797.231 664.926 797.637 666.434C798.043 667.942 798.555 668.946 799.172 669.446C799.789 669.946 800.497 670.196 801.293 670.196C802.09 670.196 802.801 669.942 803.426 669.434C804.051 668.926 804.536 668.016 804.879 666.703C805.332 665.016 805.559 662.157 805.559 658.125C805.559 654.094 805.356 651.324 804.95 649.817C804.543 648.309 804.032 647.301 803.414 646.793C802.797 646.285 802.09 646.032 801.293 646.032Z"/>
            <path d="M816.832 647.602C816.832 645.524 817.563 643.758 819.024 642.305C820.485 640.852 822.247 640.125 824.309 640.125C826.372 640.125 828.133 640.856 829.594 642.317C831.055 643.778 831.786 645.539 831.786 647.602C831.786 649.664 831.055 651.426 829.594 652.887C828.133 654.348 826.372 655.078 824.309 655.078C822.247 655.078 820.485 654.348 819.024 652.887C817.563 651.426 816.832 649.664 816.832 647.602ZM820.723 647.602C820.723 648.586 821.075 649.43 821.778 650.133C822.481 650.836 823.325 651.188 824.309 651.188C825.293 651.188 826.137 650.836 826.84 650.133C827.543 649.43 827.895 648.586 827.895 647.602C827.895 646.617 827.543 645.774 826.84 645.071C826.137 644.367 825.293 644.016 824.309 644.016C823.325 644.016 822.481 644.367 821.778 645.071C821.075 645.774 820.723 646.617 820.723 647.602Z"/>
</g>
</g>
</svg>
